# xmcd
#
# Track frame offsets:
#	187
#	16892
#	31572
#	46670
#	59945
#	72110
#	85975
#	101935
#	115070
#	126055
#
# Disc length: 1869 seconds
#
# Revision: 0
# Processed by: cddbd v1.5PL3 Copyright (c) Steve Scherf et al.
# Submitted via: audiograbber 1.82.02
#
DISCID=7e074b0a
DTITLE=Muddy Waters - Muddy, Brass and the Blues
DYEAR=1966
DGENRE=Blues
TTITLE0=Corine, Corina
TTITLE1=Piney Brown Blues
TTITLE2=Black Night
TTITLE3=Trouble In Mind
TTITLE4=Going Back To Memphis
TTITLE5=Betty And Dupree
TTITLE6=Sweet Little Angel
TTITLE7=Take My Advice
TTITLE8=Trouble
TTITLE9=Hard Loser
EXTD=
EXTT0=
EXTT1=
EXTT2=
EXTT3=
EXTT4=
EXTT5=
EXTT6=
EXTT7=
EXTT8=
EXTT9=
PLAYORDER=
